<svg width="166" height="190" viewBox="0 0 166 190" fill="none" xmlns="http://www.w3.org/2000/svg">
<path d="M121.168 18.3301L115.172 24.5947L121.168 30.8594L127.163 24.5948L121.168 18.3301Z" fill="#CEC306"/>
<path d="M121.181 31.9064L114.193 24.6051L121.181 17.3037L128.169 24.6051L121.181 31.9064ZM116.175 24.6051L121.181 29.8362L126.188 24.6051L121.181 19.3739L116.175 24.6051Z" fill="white"/>
<path d="M164.94 179.447H156.461V188.307H164.94V179.447Z" fill="#CEC306"/>
<path d="M165.643 189.019H155.779V178.712H165.643V189.019ZM157.143 187.572H164.237V180.159H157.143V187.572Z" fill="white"/>
<path d="M43.9971 23.6702L22.5 1.20898L1.00285 23.6703L22.5 46.1315L43.9971 23.6702Z" fill="#CEC306"/>
<path d="M22.4764 47.177L0 23.6925L22.4764 0.208008L44.9529 23.6925L22.4764 47.177ZM1.96003 23.6925L22.4764 45.1291L42.9929 23.6925L22.4764 2.25591L1.96003 23.6925Z" fill="white"/>
</svg>
