<svg width="251" height="264" viewBox="0 0 251 264" fill="none" xmlns="http://www.w3.org/2000/svg">
<path d="M118.936 87.5058L124.852 93.5719L128.697 89.5902L124.792 85.466L124.647 84.6019L125.534 84.7088L129.447 88.8152L131.118 87.0872L125.27 80.9409L121.451 84.8959L125.125 88.7707L125.372 89.9198L124.349 89.5189L120.692 85.6619L118.936 87.5058Z" fill="white"/>
<path d="M124.852 93.9728L118.535 87.5059L120.684 85.2434L124.503 89.2696L124.98 89.4567L124.861 88.9133L121.042 84.896L125.262 80.5312L131.502 87.0873L129.439 89.2251L125.398 84.985L124.98 84.9405L125.048 85.3325L129.081 89.5992L124.852 93.9728ZM119.328 87.5059L124.852 93.1623L128.305 89.5903L124.537 85.6086L124.307 84.2724L125.654 84.4328L129.439 88.4056L130.718 87.0873L125.262 81.3597L121.834 84.9049L125.372 88.6283L125.747 90.383L124.153 89.7239L120.692 86.0718L119.328 87.5059Z" fill="#CEC306"/>
<path d="M124.555 168.8L118.511 175.057L124.343 181.207L130.387 174.951L124.555 168.8Z" fill="white"/>
<path d="M124.332 181.641L118.108 175.076L124.545 168.414L130.768 174.978L124.332 181.641ZM118.893 175.076L124.332 180.813L129.984 174.961L124.545 169.224L118.893 175.076Z" fill="#CEC306"/>
<path d="M132.491 160.586L126.447 166.842L132.279 172.993L138.324 166.736L132.491 160.586Z" fill="white"/>
<path d="M132.261 173.42L126.037 166.855L132.474 160.192L138.697 166.757L132.261 173.42ZM126.821 166.864L132.261 172.6L137.913 166.748L132.474 161.011L126.821 166.864Z" fill="#CEC306"/>
<path d="M99.7219 124.473L93.6777 130.729L99.3778 136.741L105.422 130.484L99.7219 124.473Z" fill="white"/>
<path d="M99.3614 137.175L93.2744 130.752L99.711 124.089L105.798 130.512L99.3614 137.175ZM94.0587 130.752L99.3614 136.346L105.014 130.494L99.711 124.9L94.0587 130.752Z" fill="#CEC306"/>
<path d="M166.938 124.923L134.882 158.106L140.714 164.257L172.77 131.074L166.938 124.923Z" fill="white"/>
<path d="M140.701 164.691L134.478 158.126L134.674 157.921L166.925 124.535L173.148 131.1L140.701 164.691ZM135.262 158.126L140.701 163.862L172.364 131.091L166.925 125.355L135.262 158.126Z" fill="#CEC306"/>
<path d="M116.938 89.5211L76.8086 131.061L82.6407 137.211L122.77 95.6719L116.938 89.5211Z" fill="white"/>
<path d="M82.6267 137.647L76.4033 131.082L116.932 89.1362L123.156 95.7011L82.6267 137.647ZM77.1876 131.082L82.6267 136.818L122.363 95.6833L116.924 89.9468L77.1876 131.082Z" fill="#CEC306"/>
<path d="M84.8945 139.82L116.302 172.761L139.362 148.55L124.793 133.71L116.549 142.306L113.369 138.93L121.621 130.396L108.015 115.895L102.022 122.094L110.419 130.886L102.039 139.624L116.711 154.954L125.236 146.136L127.555 148.496L116.498 159.88L90.956 133.54L84.8945 139.82Z" fill="white"/>
<path d="M116.301 173.17L116.105 172.966L84.502 139.812L90.9555 133.131L116.497 159.471L127.154 148.488L125.236 146.537L116.71 155.355L101.638 139.625L110.027 130.886L101.621 122.085L108.006 115.476L122.004 130.387L113.752 138.93L116.54 141.896L124.784 133.3L139.745 148.541L116.301 173.17ZM85.2948 139.82L116.31 172.351L138.97 148.559L124.801 134.12L116.548 142.724L112.985 138.93L121.237 130.387L108.015 116.304L102.422 122.094L110.819 130.895L102.431 139.633L116.71 154.545L125.236 145.726L127.955 148.488L116.497 160.281L90.9555 133.95L85.2948 139.82Z" fill="#CEC306"/>
<path d="M133.352 89.5371L118.552 104.983L143.889 131.706L141.553 134.12L116.182 107.432L110.479 113.338L141.826 146.127L164.503 122.522L133.352 89.5371ZM130.342 104.698L132.789 102.177L152.423 122.878L149.95 125.435L130.342 104.698Z" fill="white"/>
<path d="M141.826 146.537L110.087 113.329L116.182 107.014L141.554 133.701L143.497 131.688L118.16 104.965L133.352 89.1094L164.896 122.513L141.826 146.537ZM110.871 113.338L141.818 145.717L164.103 122.522L133.344 89.9467L118.945 104.983L144.282 131.705L141.554 134.529L116.182 107.842L110.871 113.338ZM149.951 125.835L129.951 104.689L132.79 101.758L152.815 122.869L149.951 125.835ZM130.744 104.698L149.959 125.016L152.031 122.869L132.79 102.578L130.744 104.698Z" fill="#CEC306"/>
<path d="M125.304 203.448L56.5732 131.635L125.304 59.8218L194.034 131.635L125.304 203.448ZM58.1419 131.635L125.304 201.809L192.466 131.635L125.304 61.4608L58.1419 131.635Z" fill="white"/>
<path d="M82.6862 87.8716C82.5583 87.5598 79.5745 80.2378 83.5217 76.265C86.8721 72.8979 89.8986 72.9158 94.093 72.9514C95.8492 72.9603 97.8441 72.9781 100.206 72.7643C106.6 72.1764 111.186 63.7677 111.229 63.6875L112.201 64.2576C112.005 64.6228 107.273 73.281 100.308 73.9312C97.8952 74.1539 95.8748 74.1361 94.093 74.1272C89.873 74.1004 87.324 74.0737 84.2975 77.1112C80.913 80.5139 83.6837 87.3461 83.7093 87.4173L82.6862 87.8716Z" fill="white"/>
<path d="M60.8191 117.944L60.2734 116.928C60.3587 116.884 68.398 112.074 68.9607 105.411C69.1738 102.944 69.1567 100.859 69.1397 99.0241C69.1056 94.6416 69.0885 91.4794 72.3111 87.9788C76.1048 83.8546 83.1211 86.9722 83.4194 87.1058L82.9761 88.1747C82.9079 88.148 76.3776 85.2441 73.1124 88.7893C70.2053 91.9515 70.2224 94.6149 70.2565 99.0241C70.2735 100.886 70.2821 102.997 70.0689 105.518C69.4551 112.795 61.1686 117.739 60.8191 117.944Z" fill="white"/>
<path d="M181.911 191.547C181.783 191.235 178.799 183.913 182.746 179.94C186.097 176.573 189.123 176.6 193.318 176.627C195.074 176.645 197.069 176.654 199.43 176.44C205.816 175.852 210.411 167.443 210.453 167.354L211.425 167.924C211.229 168.289 206.498 176.947 199.533 177.598C197.111 177.82 195.091 177.803 193.318 177.794C189.098 177.758 186.549 177.74 183.522 180.778C180.129 184.189 182.908 191.013 182.934 191.084L181.911 191.547Z" fill="white"/>
<path d="M160.035 221.619L159.489 220.603C159.575 220.559 167.614 215.749 168.185 209.086C168.398 206.618 168.381 204.534 168.364 202.699C168.33 198.316 168.313 195.154 171.535 191.654C175.329 187.529 182.345 190.647 182.644 190.781L182.2 191.85C182.132 191.823 175.602 188.919 172.337 192.464C169.43 195.626 169.447 198.29 169.481 202.699C169.498 204.561 169.506 206.672 169.293 209.193C168.671 216.47 160.384 221.405 160.035 221.619Z" fill="white"/>
<path d="M141.485 198.7L140.453 198.263C140.581 197.943 143.625 190.353 150.641 189.703C153.053 189.48 155.074 189.498 156.856 189.507C161.076 189.543 163.625 189.561 166.651 186.523C170.044 183.112 167.265 176.288 167.239 176.217L168.262 175.754C168.39 176.066 171.374 183.388 167.427 187.361C164.077 190.728 161.05 190.701 156.856 190.674C155.099 190.656 153.105 190.647 150.743 190.861C144.392 191.44 141.51 198.629 141.485 198.7Z" fill="white"/>
<path d="M173.241 177.767C170.342 177.767 167.708 176.591 167.521 176.511L167.964 175.442C168.032 175.469 174.562 178.373 177.828 174.827C180.735 171.665 180.718 169.002 180.683 164.593C180.666 162.731 180.658 160.62 180.871 158.099C181.485 150.813 189.771 145.878 190.129 145.664L190.675 146.679C190.59 146.724 182.551 151.534 181.979 158.197C181.766 160.664 181.783 162.749 181.8 164.584C181.834 168.966 181.851 172.128 178.629 175.629C177.128 177.268 175.125 177.767 173.241 177.767Z" fill="white"/>
<path d="M40.4436 96.2179L39.4717 95.6478C39.6678 95.2826 44.3993 86.6245 51.3644 85.9742C53.7855 85.7515 55.7975 85.7693 57.5793 85.7782C61.7993 85.8049 64.3483 85.8317 67.3748 82.7942C70.7593 79.3915 67.9886 72.5594 67.963 72.4881L68.9861 72.0249C69.1139 72.3367 72.0978 79.6587 68.1506 83.6315C64.8002 86.9986 61.7737 86.9807 57.5793 86.9451C55.8231 86.9362 53.8282 86.9184 51.4667 87.1322C45.0898 87.729 40.4947 96.1289 40.4436 96.2179Z" fill="white"/>
<path d="M73.9726 74.0472C71.0741 74.0472 68.4398 72.8713 68.2607 72.7912L68.7041 71.7223C68.7723 71.749 75.3026 74.6529 78.5677 71.1077C81.4749 67.9455 81.4578 65.2821 81.4237 60.8729C81.4067 59.0112 81.3981 56.9001 81.6113 54.3792C82.2251 47.0928 90.5116 42.158 90.8697 41.9531L91.4153 42.9686C91.33 43.0131 83.2907 47.8232 82.7195 54.4861C82.5064 56.9535 82.5235 59.0379 82.5405 60.8729C82.5746 65.2554 82.5917 68.4176 79.3691 71.9182C77.8602 73.5483 75.8652 74.0472 73.9726 74.0472Z" fill="white"/>
<path d="M190.01 117.712C189.661 117.507 181.374 112.563 180.752 105.286C180.539 102.756 180.556 100.654 180.564 98.7922C180.598 94.3829 180.615 91.7196 177.708 88.5574C174.452 85.0211 167.913 87.916 167.845 87.9428L167.401 86.8739C167.7 86.7403 174.707 83.6226 178.51 87.7468C181.732 91.2475 181.707 94.4096 181.681 98.7922C181.664 100.627 181.656 102.712 181.86 105.179C182.423 111.86 190.471 116.652 190.556 116.696L190.01 117.712Z" fill="white"/>
<path d="M168.134 87.6398L167.111 87.1766C167.137 87.1053 169.916 80.2821 166.523 76.8705C163.497 73.833 160.948 73.8509 156.728 73.8865C154.946 73.9043 152.925 73.9132 150.513 73.6905C143.539 73.0492 138.816 64.391 138.62 64.0169L139.592 63.4468C139.635 63.5359 144.238 71.9357 150.615 72.5236C152.977 72.7463 154.972 72.7285 156.728 72.7107C160.922 72.6751 163.949 72.6572 167.299 76.0243C171.246 80.006 168.262 87.328 168.134 87.6398Z" fill="white"/>
<path d="M90.8618 221.307C90.5123 221.102 82.2258 216.159 81.6034 208.872C81.3903 206.351 81.4074 204.24 81.4159 202.379C81.45 197.969 81.467 195.306 78.5599 192.144C75.3033 188.608 68.7644 191.503 68.6962 191.529L68.2529 190.46C68.5513 190.327 75.5591 187.209 79.3613 191.333C82.5838 194.834 82.5583 197.996 82.5327 202.379C82.5156 204.214 82.5071 206.298 82.7117 208.765C83.2744 215.446 91.3222 220.238 91.4075 220.283L90.8618 221.307Z" fill="white"/>
<path d="M68.9861 191.235L67.963 190.772C67.9886 190.7 70.7678 183.877 67.3748 180.466C64.3483 177.428 61.7993 177.446 57.5793 177.482C55.7975 177.491 53.777 177.508 51.3644 177.286C44.3907 176.644 39.6678 167.986 39.4717 167.612L40.4436 167.042C40.4862 167.131 45.0898 175.531 51.4667 176.128C53.8282 176.35 55.8231 176.333 57.5793 176.315C61.7737 176.288 64.8002 176.261 68.1506 179.628C72.0978 183.601 69.1139 190.923 68.9861 191.235Z" fill="white"/>
<path d="M77.366 177.767C75.4734 177.767 73.4785 177.268 71.9781 175.638C68.7555 172.137 68.7811 168.975 68.8067 164.593C68.8237 162.758 68.8322 160.673 68.6276 158.206C68.065 151.525 60.0172 146.733 59.9404 146.688L60.486 145.673C60.8356 145.878 69.1221 150.821 69.7445 158.108C69.9576 160.629 69.9405 162.74 69.932 164.601C69.8979 169.011 69.8808 171.674 72.788 174.836C76.0446 178.373 82.5835 175.478 82.6517 175.451L83.095 176.52C82.8989 176.591 80.2561 177.767 77.366 177.767Z" fill="white"/>
<path d="M109.122 198.7C109.097 198.629 106.198 191.44 99.8638 190.861C97.5023 190.638 95.5074 190.656 93.7512 190.674C89.5568 190.71 86.5303 190.728 83.1799 187.361C79.2327 183.397 82.2166 176.066 82.3444 175.754L83.3675 176.217C83.3419 176.288 80.5627 183.112 83.9557 186.523C86.9822 189.561 89.5312 189.543 93.7512 189.507C95.533 189.489 97.5535 189.48 99.9661 189.703C106.982 190.353 110.026 197.943 110.154 198.263L109.122 198.7Z" fill="white"/>
<path d="M176.813 73.2806C174.92 73.2806 172.926 72.7817 171.425 71.1516C168.203 67.651 168.228 64.4887 168.254 60.1062C168.271 58.2713 168.279 56.1869 168.075 53.7195C167.512 47.0477 159.464 42.2465 159.379 42.202L159.925 41.1865C160.274 41.3914 168.561 46.3351 169.183 53.6126C169.396 56.1335 169.379 58.2445 169.37 60.1062C169.336 64.5155 169.319 67.1788 172.226 70.341C175.483 73.8773 182.022 70.9824 182.09 70.9556L182.533 72.0246C182.346 72.1047 179.712 73.2806 176.813 73.2806Z" fill="white"/>
<path d="M210.334 95.4516C210.292 95.3626 205.688 86.9627 199.311 86.3748C196.95 86.1521 194.955 86.17 193.198 86.1878C189.004 86.2234 185.978 86.2412 182.627 82.8741C178.68 78.9103 181.664 71.5793 181.792 71.2676L182.815 71.7308C182.789 71.8021 180.01 78.6252 183.403 82.0368C186.429 85.0743 188.978 85.0565 193.198 85.0209C194.98 85.0031 197.001 84.9941 199.413 85.2168C206.387 85.8582 211.11 94.5164 211.306 94.8905L210.334 95.4516Z" fill="white"/>
<path d="M111.271 64.3199C111.041 63.9993 105.636 56.4634 106.207 48.99C106.608 43.7701 111.263 39.6014 115.756 35.5573C119.686 32.0299 123.744 28.3867 124.835 24.1646L125.909 24.4674C124.733 29.0281 120.538 32.796 116.48 36.4392C111.953 40.501 107.674 44.3402 107.316 49.079C106.778 56.1071 112.098 63.545 112.158 63.6162L111.271 64.3199Z" fill="white"/>
<path d="M139.549 64.0971L138.671 63.3845C138.722 63.3132 143.973 56.1159 143.436 49.0878C143.078 44.349 138.799 40.5098 134.272 36.448C130.214 32.8048 126.019 29.0368 124.843 24.4762L125.917 24.1733C127.008 28.3866 131.066 32.0387 134.996 35.5661C139.498 39.6013 144.152 43.7789 144.545 48.9988C145.116 56.4722 139.779 63.7854 139.549 64.0971Z" fill="white"/>
<path d="M125.841 239.292L124.767 238.989C125.943 234.428 130.137 230.66 134.196 227.017C138.722 222.955 143.002 219.116 143.36 214.377C143.906 207.26 140.487 198.789 140.453 198.709L141.476 198.254C141.621 198.611 145.031 207.073 144.468 214.475C144.068 219.695 139.413 223.864 134.92 227.908C130.99 231.426 126.923 235.069 125.841 239.292Z" fill="white"/>
<path d="M124.766 239.291C123.675 235.069 119.617 231.426 115.687 227.898C111.186 223.863 106.531 219.686 106.139 214.466C105.576 207.064 108.986 198.601 109.131 198.245L110.154 198.699C110.12 198.788 106.71 207.26 107.247 214.368C107.605 219.107 111.885 222.946 116.412 227.008C120.47 230.651 124.664 234.419 125.841 238.979L124.766 239.291Z" fill="white"/>
<path d="M227.615 131.83C223.25 130.601 219.644 126.218 216.157 121.978C212.269 117.248 208.595 112.777 204.06 112.403C197.342 111.842 190.709 117.596 190.641 117.658L189.925 116.767C190.206 116.518 196.984 110.648 204.153 111.245C209.149 111.663 213.139 116.527 217.009 121.221C220.385 125.328 223.872 129.568 227.913 130.708L227.615 131.83Z" fill="white"/>
<path d="M202.951 151.347C196.267 151.347 190.334 146.857 190.069 146.653L190.726 145.717C190.794 145.771 197.324 150.706 204.059 150.135C208.595 149.761 212.269 145.29 216.157 140.56C219.643 136.32 223.25 131.937 227.614 130.708L227.904 131.83C223.872 132.971 220.377 137.211 217.001 141.317C213.139 146.02 209.14 150.884 204.145 151.293C203.744 151.329 203.352 151.347 202.951 151.347Z" fill="white"/>
<path d="M47.3998 151.703C47.0247 151.703 46.6496 151.685 46.2745 151.659C41.2787 151.24 37.2889 146.385 33.4184 141.682C30.0424 137.576 26.5556 133.336 22.5146 132.196L22.8045 131.073C27.1694 132.302 30.7756 136.685 34.2624 140.925C38.1499 145.655 41.8243 150.127 46.3597 150.501C53.0947 151.062 59.7955 145.771 59.8637 145.717L60.5372 146.644C60.2644 146.857 54.1262 151.703 47.3998 151.703Z" fill="white"/>
<path d="M22.8045 132.196L22.5146 131.073C26.5556 129.933 30.0424 125.693 33.4184 121.587C37.2804 116.884 41.2787 112.02 46.2745 111.61C53.4357 111.004 60.5884 116.741 60.8867 116.981L60.2047 117.899C60.1365 117.846 53.0947 112.198 46.3683 112.768C41.8328 113.142 38.1585 117.614 34.271 122.344C30.7756 126.584 27.1694 130.966 22.8045 132.196Z" fill="white"/>
<path d="M87.852 88.958H84.459V92.5032H87.852V88.958Z" fill="#CEC306"/>
<path d="M88.1337 92.7976H84.1865V88.6733H88.1337V92.7976ZM84.7407 92.2186H87.5796V89.2524H84.7407V92.2186Z" fill="white"/>
<path d="M48.4861 129.124L46.0869 131.631L48.4862 134.138L50.8854 131.631L48.4861 129.124Z" fill="#CEC306"/>
<path d="M48.4916 134.556L45.6953 131.635L48.4916 128.713L51.2879 131.635L48.4916 134.556ZM46.4882 131.635L48.4916 133.728L50.495 131.635L48.4916 129.541L46.4882 131.635Z" fill="white"/>
<path d="M202.102 129.126L199.703 131.633L202.102 134.14L204.502 131.633L202.102 129.126Z" fill="#CEC306"/>
<path d="M202.108 134.556L199.312 131.635L202.108 128.713L204.904 131.635L202.108 134.556ZM200.104 131.635L202.108 133.728L204.111 131.635L202.108 129.541L200.104 131.635Z" fill="white"/>
<path d="M125.171 48.7446L122.771 51.2515L125.171 53.7583L127.57 51.2515L125.171 48.7446Z" fill="#CEC306"/>
<path d="M125.176 54.1739L122.38 51.2522L125.176 48.3306L127.972 51.2522L125.176 54.1739ZM123.173 51.2522L125.176 53.3455L127.18 51.2522L125.176 49.159L123.173 51.2522Z" fill="white"/>
<path d="M125.171 208.412L122.771 210.919L125.171 213.426L127.57 210.919L125.171 208.412Z" fill="#CEC306"/>
<path d="M125.176 213.843L122.38 210.921L125.176 208L127.972 210.921L125.176 213.843ZM123.173 210.921L125.176 213.014L127.18 210.921L125.176 208.819L123.173 210.921Z" fill="white"/>
<path d="M166.139 88.958H162.746V92.5032H166.139V88.958Z" fill="#CEC306"/>
<path d="M166.421 92.7976H162.474V88.6733H166.421V92.7976ZM163.028 92.2186H165.867V89.2524H163.028V92.2186Z" fill="white"/>
<path d="M187.99 66.1274H184.597V69.6726H187.99V66.1274Z" fill="#CEC306"/>
<path d="M188.271 69.967H184.324V65.8428H188.271V69.967ZM184.878 69.388H187.717V66.4218H184.878V69.388Z" fill="white"/>
<path d="M166.139 170.756H162.746V174.302H166.139V170.756Z" fill="#CEC306"/>
<path d="M166.421 174.595H162.474V170.471H166.421V174.595ZM163.028 174.016H165.867V171.05H163.028V174.016Z" fill="white"/>
<path d="M187.99 193.596H184.597V197.141H187.99V193.596Z" fill="#CEC306"/>
<path d="M188.271 197.426H184.324V193.302H188.271V197.426ZM184.878 196.847H187.717V193.881H184.878V196.847Z" fill="white"/>
<path d="M66.0024 193.596H62.6094V197.141H66.0024V193.596Z" fill="#CEC306"/>
<path d="M66.2841 197.426H62.3369V193.302H66.2841V197.426ZM62.8825 196.847H65.7214V193.881H62.8825V196.847Z" fill="white"/>
<path d="M66.0024 66.1274H62.6094V69.6726H66.0024V66.1274Z" fill="#CEC306"/>
<path d="M66.2841 69.967H62.3369V65.8428H66.2841V69.967ZM62.8825 69.388H65.7214V66.4218H62.8825V69.388Z" fill="white"/>
<path d="M87.852 170.756H84.459V174.302H87.852V170.756Z" fill="#CEC306"/>
<path d="M88.1337 174.595H84.1865V170.471H88.1337V174.595ZM84.7407 174.016H87.5796V171.05H84.7407V174.016Z" fill="white"/>
<path d="M134.104 253.717L125.502 244.729L116.9 253.717L125.502 262.705L134.104 253.717Z" fill="#CEC306"/>
<path d="M125.5 263.128L116.506 253.73L125.5 244.333L134.494 253.73L125.5 263.128ZM117.29 253.73L125.5 262.309L133.71 253.73L125.5 245.152L117.29 253.73Z" fill="white"/>
<path d="M134.099 9.53295L125.497 0.544922L116.895 9.53293L125.497 18.521L134.099 9.53295Z" fill="#CEC306"/>
<path d="M125.5 18.9357L116.506 9.53817L125.5 0.140625L134.494 9.53817L125.5 18.9357ZM117.29 9.53817L125.5 18.1162L133.71 9.53817L125.5 0.960162L117.29 9.53817Z" fill="white"/>
<path d="M250.608 131.257L242.006 122.269L233.404 131.257L242.006 140.245L250.608 131.257Z" fill="#CEC306"/>
<path d="M242.006 140.667L233.012 131.27L242.006 121.872L251 131.27L242.006 140.667ZM233.796 131.27L242.006 139.848L250.216 131.27L242.006 122.692L233.796 131.27Z" fill="white"/>
<path d="M17.6061 131.26L9.00391 122.272L0.401663 131.261L9.00389 140.249L17.6061 131.26Z" fill="#CEC306"/>
<path d="M8.99412 140.667L0 131.27L8.99412 121.872L17.9882 131.27L8.99412 140.667ZM0.78432 131.27L8.99412 139.848L17.2039 131.27L8.99412 122.692L0.78432 131.27Z" fill="white"/>
</svg>
